<?xml version="1.0" encoding="UTF-8"?>
<svg width="257px" height="252px" viewBox="0 0 257 252" version="1.1" xmlns="http://www.w3.org/2000/svg" xmlns:xlink="http://www.w3.org/1999/xlink">
    <title>404_BG</title>
    <defs>
        <linearGradient x1="49.6147541%" y1="-16.2812346%" x2="49.6147541%" y2="138.116154%" id="linearGradient-1">
            <stop stop-color="#004C8C" offset="0%"></stop>
            <stop stop-color="#EFEFEF" offset="100%"></stop>
        </linearGradient>
        <linearGradient x1="3.42752839%" y1="-0.160714286%" x2="98.1189021%" y2="79.247619%" id="linearGradient-2">
            <stop stop-color="#58A5F0" offset="0%"></stop>
            <stop stop-color="#0277BD" offset="100%"></stop>
        </linearGradient>
        <linearGradient x1="22.0738961%" y1="41.101606%" x2="77.9261039%" y2="100%" id="linearGradient-3">
            <stop stop-color="#0277BD" offset="0%"></stop>
            <stop stop-color="#58A5F0" offset="100%"></stop>
        </linearGradient>
        <linearGradient x1="1.18339002%" y1="-0.160714286%" x2="100.437557%" y2="79.247619%" id="linearGradient-4">
            <stop stop-color="#58A5F0" offset="0%"></stop>
            <stop stop-color="#0277BD" offset="100%"></stop>
        </linearGradient>
        <linearGradient x1="22.0663893%" y1="41.101606%" x2="77.9336107%" y2="100%" id="linearGradient-5">
            <stop stop-color="#0277BD" offset="0%"></stop>
            <stop stop-color="#58A5F0" offset="100%"></stop>
        </linearGradient>
        <linearGradient x1="50%" y1="-192.133984%" x2="50%" y2="1786.39516%" id="linearGradient-6">
            <stop stop-color="#004C8C" offset="0%"></stop>
            <stop stop-color="#FFFFFF" offset="100%"></stop>
        </linearGradient>
        <linearGradient x1="50%" y1="-192.133984%" x2="50%" y2="1786.39516%" id="linearGradient-7">
            <stop stop-color="#004C8C" offset="0%"></stop>
            <stop stop-color="#FFFFFF" offset="100%"></stop>
        </linearGradient>
        <linearGradient x1="50%" y1="-192.133984%" x2="50%" y2="1786.39516%" id="linearGradient-8">
            <stop stop-color="#004C8C" offset="0%"></stop>
            <stop stop-color="#FFFFFF" offset="100%"></stop>
        </linearGradient>
        <linearGradient x1="50%" y1="-992.228605%" x2="50%" y2="493.694232%" id="linearGradient-9">
            <stop stop-color="#004C8C" offset="0%"></stop>
            <stop stop-color="#FFFFFF" offset="100%"></stop>
        </linearGradient>
    </defs>
    <g id="Page-1" stroke="none" stroke-width="1" fill="none" fill-rule="evenodd">
        <g id="404_BG">
            <path d="M124.5,252 C191.879,252 246.5,197.603 246.5,130.5 C246.5,63.3974 191.879,9 124.5,9 C57.1213,9 2.5,63.3974 2.5,130.5 C2.5,197.603 57.1213,252 124.5,252 Z" id="BG" fill="url(#linearGradient-1)" fill-rule="nonzero"></path>
            <path d="M222.005,76.2009 C226.132,73.1732 227.023,67.3731 223.996,63.2461 C220.968,59.1191 215.168,58.228 211.041,61.2557 C206.914,64.2834 206.023,70.0835 209.05,74.2105 C210.918,76.7559 213.84,78.0704 216.773,77.9937 C216.983,77.9705 217.2,77.9572 217.421,77.954 C219.026,77.7993 220.611,77.2237 222.005,76.2009 Z M179.674,78.7029 C188.824,80.7404 197.144,82.012 205.505,80.8768 C204.705,80.1499 203.966,79.3327 203.302,78.4276 C197.945,71.1259 199.522,60.8643 206.824,55.5075 C214.126,50.1508 224.387,51.7274 229.744,59.0291 C232.53,62.8274 233.441,67.4267 232.645,71.7199 C239.257,67.9805 245.143,63.2562 249.715,57.2154 C250.904,55.6456 253.13,55.3878 254.689,56.6397 C256.248,57.8916 256.548,60.179 255.36,61.7488 C247.104,72.656 235.571,79.0459 223.688,83.48 C222.002,84.301 220.22,84.81 218.42,85.018 C204.961,89.898 191.075,88.721 178.102,85.832 C176.197,85.408 175.005,83.468 175.439,81.5 C175.873,79.5309 177.769,78.2788 179.674,78.7029 Z" id="Shape" fill="#F9A825"></path>
            <path d="M113,78 C113,54.2517143 131.804,35 155,35 L196,35 L196,121 L155,121 C131.804,121 113,101.748286 113,78 L113,78 Z" id="Path_COPY_001" fill="url(#linearGradient-2)" fill-rule="nonzero" transform="translate(154.500000, 78.000000) scale(-1, 1) translate(-154.500000, -78.000000) "></path>
            <path d="M148.408,105.556 C142.387,117.231 132.307,124.876 120.895,124.876 L109.872,124.876 C91.419,124.876 76.456,104.883 76.456,80.228 C76.456,55.5732 91.419,35.5872 109.872,35.5803 L120.93,35.5803 C132.342,35.5803 142.435,43.2112 148.443,54.9003 C152.315,62.7794 154.329,71.4418 154.329,80.221 C154.329,89 152.315,97.663 148.443,105.542 L148.408,105.556 Z" id="Path" fill="#F9A825" fill-rule="nonzero"></path>
            <path d="M81.8917608,105.677403 C87.9057608,117.33397 97.9577608,124.972996 109.355761,125 C127.794761,125 142.737761,104.991311 142.737761,80.3469996 C142.737761,55.7026879 127.794761,35.7210028 109.355761,35.7 C97.9577608,35.7 87.9057608,43.3320256 81.8917608,55.0155956 C77.9497608,62.8736516 75.9317608,71.5558183 76.0017608,80.3469996 C75.9317608,89.1381809 77.9497608,97.8193475 81.8917608,105.677403 Z" id="Path_COPY_01" fill="url(#linearGradient-3)" fill-rule="nonzero" transform="translate(109.368880, 80.350000) scale(-1, 1) translate(-109.368880, -80.350000) "></path>
            <path d="M110.802,88.46 C109.176,85.54 106.452,83.627 103.368,83.62 C98.375,83.62 94.33,88.632 94.33,94.805 C94.33,100.978 98.375,105.983 103.368,105.99 C106.452,105.99 109.176,104.079 110.802,101.15 C111.852,99.177 112.398,97.006 112.398,94.807 C112.398,92.607 111.852,90.437 110.802,88.463 L110.802,88.46 Z" id="Path" fill="#FFFFFF" fill-rule="nonzero"></path>
            <path d="M110.802,58.3457 C109.176,55.426 106.452,53.5126 103.368,53.5056 C98.375,53.5056 94.33,58.5178 94.33,64.6909 C94.33,70.864 98.375,75.8692 103.368,75.8761 C106.452,75.8761 109.176,73.9644 110.802,71.036 C111.852,69.0625 112.398,66.8922 112.398,64.6926 C112.398,62.493 111.852,60.3228 110.802,58.3492 L110.802,58.3457 Z" id="Path" fill="#FFFFFF" fill-rule="nonzero"></path>
            <path d="M73,95.475 C73,99.631 76.369,103 80.525,103 L102,103 C106.418,103 110,99.419 110,95 L110,95 C110,90.582 106.418,87 102,87 L80.525,87 C76.369,87 73,90.369 73,94.526 L73,95.475 Z" id="Path" fill="#F9A825" fill-rule="nonzero"></path>
            <path d="M73,64.5002 C73,68.6424 76.358,72.0002 80.5,72.0002 L102.5,72.0002 C106.642,72.0002 110,68.6424 110,64.5002 L110,64.5002 C110,60.3581 106.642,57.0002 102.5,57.0002 L80.5,57.0002 C76.358,57.0002 73,60.3581 73,64.5002 L73,64.5002 Z" id="Path" fill="#F9A825" fill-rule="nonzero"></path>
            <polygon id="Path" fill="#F9A825" points="133.852 118.179 154.337 118.179 154.337 121.179 133.852 121.179"></polygon>
            <path d="M2.3569,182.844 C19.6521,172.459 39.2449,170.482 58.0038,171.103 C60.6842,171.192 62.7852,173.437 62.6964,176.117 C62.6075,178.798 60.3626,180.899 57.6822,180.81 C39.6788,180.213 22.3041,182.195 7.3567,191.171 C5.0574,192.551 2.0743,191.807 0.6936,189.507 C-0.687,187.208 0.0576,184.225 2.3569,182.844 Z" id="Path" fill="#F9A825"></path>
            <path d="M44,176 C44,152.804 62.804,134 86,134 L127,134 L127,218 L86,218 C62.804,218 44,199.196 44,176 L44,176 Z" id="Path" fill="url(#linearGradient-4)" fill-rule="nonzero"></path>
            <path d="M84.961,203.685 C90.99,215.361 101.07,223.005 112.481,223.005 L123.539,223.005 C141.992,223.005 156.956,203.012 156.956,178.358 C156.956,153.703 141.992,133.717 123.539,133.71 L112.481,133.71 C101.07,133.71 90.976,141.341 84.961,153.03 C81.02,160.887 79.002,169.568 79.072,178.358 C79.002,187.148 81.02,195.828 84.961,203.685 L84.961,203.685 Z" id="Path" fill="#F9A825" fill-rule="nonzero"></path>
            <path d="M96.109,203.685 C102.123,215.34 112.175,222.978 123.573,223.005 C142.012,223.005 156.955,202.999 156.955,178.358 C156.955,153.717 142.012,133.738 123.573,133.717 C112.175,133.717 102.123,141.348 96.109,153.03 C92.167,160.887 90.149,169.568 90.219,178.358 C90.149,187.148 92.167,195.828 96.109,203.685 Z" id="Path" fill="url(#linearGradient-5)" fill-rule="nonzero"></path>
            <path d="M126.595,184.287 C131.109,184.287 134.769,189.102 134.769,195.042 C134.769,200.982 131.109,205.797 126.595,205.797 C122.08,205.797 118.421,200.982 118.421,195.042 C118.421,189.102 122.08,184.287 126.595,184.287 Z" id="Path" fill="#FFFFFF" fill-rule="nonzero"></path>
            <path d="M126.595,149.871 C131.109,149.871 134.769,154.686 134.769,160.626 C134.769,166.566 131.109,171.381 126.595,171.381 C122.08,171.381 118.421,166.566 118.421,160.626 C118.421,154.686 122.08,149.871 126.595,149.871 Z" id="Path" fill="#FFFFFF" fill-rule="nonzero"></path>
            <polygon id="Path" fill="#F9A825" points="82.099 215.216 99.35 215.216 99.35 218.216 82.099 218.216"></polygon>
            <path d="M213.072,21.503 C214.378,16.2086 214.293,11.1102 214.449,5.74 C214.48,4.6912 213.653,3.8193 212.605,3.7877 C211.555,3.7561 210.679,4.5838 210.648,5.6326 C210.5,10.7247 210.62,15.5705 209.381,20.5995 C209.13,21.6167 209.754,22.6465 210.773,22.8929 C211.791,23.1456 212.822,22.5202 213.072,21.503 Z" id="Path" fill="url(#linearGradient-6)"></path>
            <path d="M224.168,31.7632 C233.027,23.689 241.375,13.3025 247.21,2.8148 C247.719,1.8987 247.387,0.7425 246.47,0.2371 C245.552,-0.2683 244.394,0.0602 243.885,0.9763 C238.243,11.1165 230.17,21.1619 221.603,28.9644 C220.828,29.672 220.774,30.8724 221.482,31.6432 C222.19,32.414 223.393,32.4708 224.168,31.7632 Z" id="Path" fill="url(#linearGradient-7)"></path>
            <path d="M226.412,40.5829 C234.515,41.9159 242.867,39.6415 250.235,36.4258 C251.197,36.0025 251.635,34.8842 251.215,33.9302 C250.794,32.9699 249.672,32.534 248.711,32.9509 C242,35.8824 234.411,38.0558 227.031,36.8428 C225.996,36.6722 225.017,37.3734 224.846,38.4032 C224.675,39.4331 225.377,40.4123 226.412,40.5829 Z" id="Path" fill="url(#linearGradient-8)"></path>
            <path d="M3.1483,233.552 C4.3028,233.141 5.5177,232.594 6.4546,231.802 C7.5673,230.862 8.0198,229.651 8.3237,228.377 C8.7138,226.739 8.8697,224.995 9.3428,223.355 C9.5179,222.746 9.855,222.515 9.9997,222.413 C10.3653,222.155 10.7348,222.086 11.0825,222.112 C11.4945,222.142 12.0605,222.298 12.4327,222.988 C12.4858,223.087 12.5548,223.238 12.6012,223.444 C12.6351,223.596 12.657,224.069 12.6928,224.264 C12.7824,224.744 12.8573,225.224 12.9277,225.708 C13.1619,227.315 13.2966,228.681 14.0364,230.158 C15.0403,232.163 16.0462,233.39 17.4103,233.933 C18.7294,234.458 20.3065,234.36 22.3215,233.948 C22.5133,233.901 22.703,233.861 22.8908,233.829 C23.7792,233.674 24.6285,234.257 24.803,235.142 C24.9775,236.026 24.4129,236.888 23.5324,237.083 C23.3486,237.123 23.1675,237.162 22.9884,237.197 C20.2653,237.871 17.113,240.277 15.2811,242.383 C14.7165,243.033 13.8898,244.849 13.0465,246.007 C12.4241,246.862 11.7247,247.425 11.1376,247.624 C10.7441,247.758 10.4124,247.738 10.1383,247.67 C9.7402,247.572 9.4098,247.356 9.1564,247.013 C9.0184,246.825 8.8903,246.574 8.8292,246.253 C8.8,246.098 8.7967,245.705 8.7974,245.528 C8.6255,244.936 8.4152,244.359 8.2619,243.763 C7.8964,242.339 7.1791,241.438 6.3272,240.248 C5.5303,239.134 4.6744,238.434 3.4197,237.875 C3.2565,237.836 1.9395,237.513 1.4743,237.328 C0.7949,237.057 0.4711,236.602 0.3537,236.357 C0.154,235.942 0.1334,235.579 0.1732,235.277 C0.2323,234.83 0.4326,234.448 0.7883,234.139 C1.0086,233.948 1.3377,233.761 1.7782,233.67 C2.1186,233.599 3.0216,233.558 3.1483,233.552 Z M10.8748,231.232 C10.9358,231.368 11.0009,231.505 11.0699,231.643 C12.5402,234.58 14.1843,236.219 16.1828,237.015 L16.2498,237.041 C14.9129,238.033 13.7026,239.143 12.7777,240.206 C12.3969,240.644 11.8926,241.554 11.3479,242.487 C10.8529,240.878 10.0434,239.741 9.0256,238.317 C8.248,237.231 7.4332,236.414 6.432,235.748 C7.209,235.349 7.9501,234.882 8.5957,234.336 C9.6706,233.428 10.3812,232.376 10.8748,231.232 Z" id="Shape" fill="url(#linearGradient-9)"></path>
        </g>
    </g>
</svg>