<?xml version="1.0" encoding="UTF-8"?>
<svg width="20px" height="20px" viewBox="0 0 20 20" version="1.1" xmlns="http://www.w3.org/2000/svg" xmlns:xlink="http://www.w3.org/1999/xlink">
    <title>approve_icon_01</title>
    <g id="Page-1" stroke="none" stroke-width="1" fill="none" fill-rule="evenodd">
        <g id="Approve" transform="translate(-17.000000, -77.000000)" fill-rule="nonzero">
            <g id="approve_icon_01" transform="translate(17.000007, 77.000000)">
                <path d="M12.719993,6.79 L8.42999304,11.09 L6.77999304,9.44 C6.69039304,9.3353 6.57999304,9.2503 6.45599304,9.1903 C6.33189304,9.1303 6.19679304,9.0965 6.05909304,9.0912 C5.92129304,9.0859 5.78399304,9.1091 5.65569304,9.1594 C5.52739304,9.2096 5.41079304,9.2859 5.31339304,9.3833 C5.21589304,9.4808 5.13959304,9.5974 5.08939304,9.7257 C5.03909304,9.854 5.01589304,9.9913 5.02119304,10.1291 C5.02649304,10.2668 5.06029304,10.4019 5.12029304,10.526 C5.18029304,10.65 5.26529304,10.7604 5.36999304,10.85 L7.71999304,13.21 C7.81339304,13.3027 7.92429304,13.376 8.04609304,13.4258 C8.16789304,13.4755 8.29839304,13.5008 8.42999304,13.5000184 C8.69229304,13.4989 8.94369304,13.3947 9.12999304,13.21 L14.129993,8.21 C14.223693,8.117 14.298093,8.0064 14.348893,7.8846 C14.399693,7.7627 14.425793,7.632 14.425793,7.5 C14.425793,7.368 14.399693,7.2373 14.348893,7.1154 C14.298093,6.9936 14.223693,6.883 14.129993,6.79 C13.942593,6.6037 13.689193,6.4992 13.424993,6.4992 C13.160793,6.4992 12.907393,6.6037 12.719993,6.79 Z M10,-5.5067062e-14 C8.02219304,-5.5067062e-14 6.08879304,0.5865 4.44429304,1.6853 C2.79979304,2.7841 1.51809304,4.3459 0.761193044,6.1732 C0.00429304448,8.0004 -0.193706956,10.0111 0.192193044,11.9509 C0.577993044,13.8907 1.53039304,15.6725 2.92889304,17.0711 C4.32749304,18.4696 6.10929304,19.422 8.04909304,19.8079 C9.98889304,20.1937 11.999593,19.9957 13.826793,19.2388 C15.654093,18.4819 17.215893,17.2002 18.314693,15.5557 C19.413493,13.9112 20,11.9778 20,10 C20,8.6868 19.741293,7.3864 19.238793,6.1732 C18.736293,4.9599 17.999693,3.8575 17.071093,2.9289 C16.142493,2.0003 15.040093,1.2638 13.826793,0.7612 C12.613593,0.2587 11.313193,-5.5067062e-14 10,-5.5067062e-14 L10,-5.5067062e-14 Z M9.99999304,18 C8.41779304,18 6.87099304,17.5308 5.55539304,16.6518 C4.23979304,15.7727 3.21449304,14.5233 2.60899304,13.0615 C2.00349304,11.5997 1.84499304,9.9911 2.15369304,8.4393 C2.46239304,6.8874 3.22429304,5.462 4.34319304,4.3431 C5.46199304,3.2243 6.88739304,2.4624 8.43929304,2.1537 C9.99109304,1.845 11.599693,2.0035 13.061493,2.609 C14.523293,3.2145 15.772693,4.2398 16.651793,5.5554 C17.530793,6.871 17.999993,8.4177 17.999993,10 C17.999993,12.1217 17.157193,14.1566 15.656893,15.6569 C14.156593,17.1571 12.121693,18 9.99999304,18 L9.99999304,18 Z" id="Shape_Copy_02" fill="#0277BD"></path>
                <path d="M12.719993,6.79 L8.42999304,11.09 L6.77999304,9.44 C6.69039304,9.3353 6.57999304,9.2503 6.45599304,9.1903 C6.33189304,9.1303 6.19679304,9.0965 6.05909304,9.0912 C5.92129304,9.0859 5.78399304,9.1091 5.65569304,9.1594 C5.52739304,9.2096 5.41079304,9.2859 5.31339304,9.3833 C5.21589304,9.4808 5.13959304,9.5974 5.08939304,9.7257 C5.03909304,9.854 5.01589304,9.9913 5.02119304,10.1291 C5.02649304,10.2668 5.06029304,10.4019 5.12029304,10.526 C5.18029304,10.65 5.26529304,10.7604 5.36999304,10.85 L7.71999304,13.21 C7.81339304,13.3027 7.92429304,13.376 8.04609304,13.4258 C8.16789304,13.4755 8.29839304,13.5008 8.42999304,13.5000184 C8.69229304,13.4989 8.94369304,13.3947 9.12999304,13.21 L14.129993,8.21 C14.223693,8.117 14.298093,8.0064 14.348893,7.8846 C14.399693,7.7627 14.425793,7.632 14.425793,7.5 C14.425793,7.368 14.399693,7.2373 14.348893,7.1154 C14.298093,6.9936 14.223693,6.883 14.129993,6.79 C13.942593,6.6037 13.689193,6.4992 13.424993,6.4992 C13.160793,6.4992 12.907393,6.6037 12.719993,6.79 Z" id="Path" fill="#F9A825"></path>
            </g>
        </g>
    </g>
</svg>