<?xml version="1.0" encoding="UTF-8"?>
<svg width="32px" height="32px" viewBox="0 0 32 32" version="1.1" xmlns="http://www.w3.org/2000/svg" xmlns:xlink="http://www.w3.org/1999/xlink">
    <title>facebook-02</title>
    <g id="Page-1" stroke="none" stroke-width="1" fill="none" fill-rule="evenodd">
        <g id="Social-Icon-Copy-02" transform="translate(-15.000000, -11.000000)" fill="#FFFFFF" fill-rule="nonzero">
            <path d="M45.24,11 L16.76,11 C16.29328,11 15.8456,11.18544 15.51552,11.51552 C15.18544,11.8456 15,12.29328 15,12.76 L15,41.24 C15,41.4712 15.0456,41.7 15.13392,41.9136 C15.2224,42.12704 15.352,42.32112 15.51552,42.48448 C15.67888,42.648 15.87296,42.7776 16.0864,42.86608 C16.3,42.9544 16.5288,43 16.76,43 L32.088,43 L32.088,30.6 L27.928,30.6 L27.928,25.8 L32.088,25.8 L32.088,22.2 C32.00176,21.35488 32.1016,20.50096 32.38032,19.6984 C32.65904,18.89584 33.11008,18.164 33.7016,17.55424 C34.29312,16.94448 35.01088,16.47136 35.80448,16.16832 C36.59824,15.86528 37.44864,15.73968 38.296,15.8 C39.54128,15.79232 40.78608,15.85648 42.024,15.992 L42.024,20.312 L39.48,20.312 C37.464,20.312 37.08,21.272 37.08,22.664 L37.08,25.752 L41.88,25.752 L41.256,30.552 L37.08,30.552 L37.08,43 L45.24,43 C45.4712,43 45.7,42.9544 45.9136,42.86608 C46.12704,42.7776 46.32112,42.648 46.48448,42.48448 C46.648,42.32112 46.7776,42.12704 46.86608,41.9136 C46.9544,41.7 47,41.4712 47,41.24 L47,12.76 C47,12.5288 46.9544,12.3 46.86608,12.0864 C46.7776,11.87296 46.648,11.67888 46.48448,11.51552 C46.32112,11.352 46.12704,11.2224 45.9136,11.13392 C45.7,11.0456 45.4712,11 45.24,11 L45.24,11 Z" id="facebook-02"></path>
        </g>
    </g>
</svg>