<?xml version="1.0" encoding="UTF-8"?>
<svg width="32px" height="32px" viewBox="0 0 32 32" version="1.1" xmlns="http://www.w3.org/2000/svg" xmlns:xlink="http://www.w3.org/1999/xlink">
    <title>instagram-02</title>
    <g id="Page-1" stroke="none" stroke-width="1" fill="none" fill-rule="evenodd">
        <g id="Social-Icon-Copy-02" transform="translate(-93.000000, -11.000000)" fill="#FFFFFF" fill-rule="nonzero">
            <path d="M109,23.032 C108.216,23.032 107.448,23.26464 106.7952,23.7008 C106.1424,24.1368 105.6336,24.75648 105.3344,25.48144 C105.0336,26.20656 104.9552,27.00448 105.1088,27.77408 C105.2608,28.54384 105.64,29.25088 106.1936,29.80576 C106.7488,30.3608 107.456,30.73872 108.2256,30.89168 C108.9952,31.0448 109.7936,30.96624 110.5184,30.66592 C111.2432,30.3656 111.864,29.85696 112.2992,29.20448 C112.736,28.552 112.968,27.7848 112.968,27 C112.968,26.47888 112.8656,25.96288 112.6656,25.48144 C112.4672,25.00016 112.1744,24.56272 111.8064,24.19424 C111.4368,23.82576 111,23.53344 110.5184,23.33408 C110.0368,23.13456 109.5216,23.032 109,23.032 L109,23.032 Z M124.888,19.112 C124.88,17.87648 124.6528,16.65216 124.216,15.496 C123.8944,14.65008 123.3984,13.88176 122.7584,13.24192 C122.1184,12.60208 121.3504,12.10512 120.504,11.784 C119.3472,11.348 118.1232,11.12048 116.888,11.112 C114.824,11 114.216,11 109,11 C103.784,11 103.176,11 101.112,11.112 C99.8768,11.12048 98.6528,11.348 97.496,11.784 C96.65008,12.10512 95.88176,12.60208 95.24192,13.24192 C94.60208,13.88176 94.10512,14.65008 93.784,15.496 C93.348,16.65216 93.12048,17.87648 93.112,19.112 C93,21.176 93,21.784 93,27 C93,32.216 93,32.824 93.112,34.888 C93.12928,36.128 93.35648,37.356 93.784,38.52 C94.10368,39.36208 94.60016,40.12592 95.24,40.76 C95.87712,41.40368 96.64704,41.90064 97.496,42.216 C98.6528,42.652 99.8768,42.87952 101.112,42.888 C103.176,43 103.784,43 109,43 C114.216,43 114.824,43 116.888,42.888 C118.1232,42.87952 119.3472,42.652 120.504,42.216 C121.3536,41.90064 122.1232,41.40368 122.76,40.76 C123.4,40.12592 123.896,39.36208 124.216,38.52 C124.6512,37.35824 124.8784,36.1288 124.888,34.888 C125,32.824 125,32.216 125,27 C125,21.784 125,21.176 124.888,19.112 L124.888,19.112 Z M120.824,31.912 C120.7728,32.89936 120.5616,33.872 120.2,34.792 C119.8896,35.55952 119.4272,36.25664 118.8416,36.84224 C118.256,37.42768 117.56,37.88944 116.792,38.2 C115.864,38.54176 114.8848,38.73088 113.896,38.76 C112.632,38.76 112.296,38.76 109,38.76 C105.704,38.76 105.368,38.76 104.104,38.76 C103.1152,38.73088 102.136,38.54176 101.208,38.2 C100.4144,37.90512 99.6976,37.43472 99.112,36.824 C98.5328,36.25008 98.0848,35.55664 97.8,34.792 C97.45696,33.86416 97.27296,32.88512 97.256,31.896 C97.256,30.632 97.256,30.296 97.256,27 C97.256,23.704 97.256,23.368 97.256,22.104 C97.27296,21.11488 97.45696,20.13584 97.8,19.208 C98.0944,18.41456 98.5648,17.69808 99.176,17.112 C99.752,16.53536 100.4448,16.08816 101.208,15.8 C102.136,15.45824 103.1152,15.26912 104.104,15.24 L104.104,15.24 C105.368,15.24 105.704,15.24 109,15.24 C112.296,15.24 112.632,15.24 113.896,15.24 C114.8848,15.26912 115.864,15.45824 116.792,15.8 C117.5856,16.09488 118.3024,16.56528 118.888,17.176 C119.4672,17.74992 119.9152,18.44336 120.2,19.208 C120.5424,20.1368 120.7312,21.11472 120.76,22.104 C120.76,23.368 120.76,23.704 120.76,27 C120.76,30.296 120.872,30.632 120.824,31.896 L120.824,31.912 Z M118.264,20.008 C118.0736,19.4912 117.7728,19.02176 117.384,18.63232 C116.9936,18.24288 116.5248,17.94256 116.008,17.752 C115.2976,17.50608 114.5504,17.38688 113.8,17.4 C112.552,17.4 112.2,17.4 109,17.4 C105.8,17.4 105.448,17.4 104.2,17.4 C103.4448,17.40736 102.6976,17.54816 101.992,17.816 C101.4832,17.99792 101.0192,18.28592 100.6304,18.66112 C100.24,19.03632 99.936,19.48992 99.736,19.992 C99.504,20.70464 99.3904,21.45056 99.4,22.2 C99.4,23.448 99.4,23.8 99.4,27 C99.4,30.2 99.4,30.552 99.4,31.8 C99.416,32.55392 99.5568,33.3 99.816,34.008 C100.0064,34.5248 100.3072,34.99424 100.696,35.38368 C101.0864,35.77312 101.5552,36.07344 102.072,36.264 C102.7552,36.51504 103.4736,36.65552 104.2,36.68 L104.2,36.68 C105.448,36.68 105.8,36.68 109,36.68 C112.2,36.68 112.552,36.68 113.8,36.68 C114.5552,36.67264 115.3024,36.53184 116.008,36.264 C116.5248,36.07344 116.9936,35.77312 117.384,35.38368 C117.7728,34.99424 118.0736,34.5248 118.264,34.008 C118.5312,33.30224 118.672,32.55472 118.68,31.8 C118.68,30.552 118.68,30.2 118.68,27 C118.68,23.8 118.68,23.448 118.68,22.2 C118.68,21.44448 118.5392,20.69552 118.264,19.992 L118.264,20.008 Z M109,33.1120214 C108.1984,33.1120214 107.4048,32.95376 106.664,32.6464 C105.9232,32.33904 105.2496,31.88864 104.6832,31.3208 C104.1168,30.75312 103.6688,30.0792 103.3632,29.33776 C103.0576,28.59632 102.9024,27.80192 102.903988,27 L102.903988,27 C102.903988,25.79056 103.2624,24.60816 103.9344,23.60272 C104.608,22.59728 105.5632,21.81392 106.68,21.35168 C107.7984,20.8896 109.0288,20.76944 110.2144,21.00656 C111.4,21.24384 112.4896,21.82752 113.344,22.68384 C114.1984,23.54016 114.7792,24.63072 115.0128,25.81744 C115.2464,27.00416 115.1232,28.2336 114.6576,29.35008 C114.1936,30.46656 113.408,31.42 112.4,32.08976 C111.392,32.75936 110.2096,33.1152 109,33.1120214 L109,33.1120214 Z M115.4,22.088 C115.0464,22.05056 114.7184,21.88352 114.4816,21.6192 C114.2432,21.35472 114.112,21.01168 114.112,20.656 C114.112,20.30032 114.2432,19.95728 114.4816,19.6928 C114.7184,19.42848 115.0464,19.26144 115.4,19.224 L115.4,19.224 C115.7536,19.26144 116.0816,19.42848 116.3184,19.6928 C116.5568,19.95728 116.688,20.30032 116.688,20.656 C116.688,21.01168 116.5568,21.35472 116.3184,21.6192 C116.0816,21.88352 115.7536,22.05056 115.4,22.088 Z" id="instagram-02"></path>
        </g>
    </g>
</svg>