<?xml version="1.0" encoding="UTF-8"?>
<svg width="32px" height="32px" viewBox="0 0 32 32" version="1.1" xmlns="http://www.w3.org/2000/svg" xmlns:xlink="http://www.w3.org/1999/xlink">
    <title>line-01</title>
    <g id="Page-1" stroke="none" stroke-width="1" fill="none" fill-rule="evenodd">
        <g id="Social-Icon-Copy-01" transform="translate(-54.000000, -11.000000)" fill="#0277BD" fill-rule="nonzero">
            <path d="M72.848,22.936 C72.76816,22.936 72.68912,22.95168 72.61536,22.98224 C72.5416,23.0128 72.47456,23.0576 72.41808,23.11408 C72.3616,23.17056 72.3168,23.2376 72.28624,23.31136 C72.25568,23.38512 72.24,23.46416 72.24,23.544 L72.24,26.216 L70,23.24 C69.94416,23.14944 69.86672,23.07424 69.77456,23.02112 C69.68224,22.968 69.5784,22.93872 69.472,22.936 C69.39216,22.936 69.31312,22.95168 69.23936,22.98224 C69.1656,23.0128 69.09856,23.0576 69.04208,23.11408 C68.9856,23.17056 68.9408,23.2376 68.91024,23.31136 C68.87968,23.38512 68.864,23.46416 68.864,23.544 L68.864,28.088 C68.864,28.16784 68.87968,28.24688 68.91024,28.32064 C68.9408,28.3944 68.9856,28.46144 69.04208,28.51792 C69.09856,28.5744 69.1656,28.6192 69.23936,28.64976 C69.31312,28.68032 69.39216,28.696 69.472,28.696 L69.472,28.696 C69.55184,28.696 69.63088,28.68032 69.70464,28.64976 C69.7784,28.6192 69.84544,28.5744 69.90192,28.51792 C69.9584,28.46144 70.0032,28.3944 70.03376,28.32064 C70.06432,28.24688 70.08,28.16784 70.08,28.088 L70.08,25.4 L72.304,28.456 C72.36064,28.54128 72.4456,28.60368 72.544,28.632 C72.61776,28.64848 72.69424,28.64848 72.768,28.632 C72.83824,28.65744 72.91296,28.66784 72.98736,28.6624 C73.06192,28.6568 73.1344,28.63552 73.2,28.6 L73.36,28.488 C73.47232,28.37216 73.53536,28.21728 73.5360257,28.056 L73.5360257,23.544 C73.5368,23.45696 73.51888,23.37072 73.48336,23.2912 C73.448,23.21168 73.39584,23.1408 73.33056,23.08304 C73.26544,23.02544 73.18864,22.98256 73.10528,22.95712 C73.02208,22.93168 72.93424,22.92448 72.848,22.936 L72.848,22.936 Z M65.52,27.432 L63.824,27.432 L63.824,23.544 C63.824,23.38272 63.76,23.22816 63.64592,23.11408 C63.53184,23 63.37728,22.936 63.216,22.936 L63.216,22.936 C63.05472,22.936 62.90016,23 62.78608,23.11408 C62.672,23.22816 62.608,23.38272 62.608,23.544 L62.608,28.088 C62.608,28.24928 62.672,28.40384 62.78608,28.51792 C62.90016,28.632 63.05472,28.696 63.216,28.696 L65.52,28.696 C65.68272,28.696 65.83904,28.63248 65.95568,28.51888 C66.07232,28.40528 66.13984,28.25072 66.144,28.088 L66.144,28.088 C66.14832,28.00336 66.13536,27.91888 66.10608,27.83936 C66.07664,27.76 66.03136,27.68736 65.97296,27.62592 C65.91456,27.56448 65.84432,27.51568 65.7664,27.4824 C65.68848,27.44896 65.60464,27.43184 65.52,27.432 L65.52,27.432 Z M67.296,22.936 C67.13328,22.936 66.97696,22.99952 66.86032,23.11312 C66.74368,23.22672 66.67616,23.38128 66.672,23.544 L66.672,28.088 C66.67616,28.25072 66.74368,28.40528 66.86032,28.51888 C66.97696,28.63248 67.13328,28.696 67.296,28.696 L67.296,28.696 C67.45728,28.696 67.61184,28.632 67.72592,28.51792 C67.84,28.40384 67.904,28.24928 67.904,28.088 L67.904,23.544 C67.904,23.38272 67.84,23.22816 67.72592,23.11408 C67.61184,23 67.45728,22.936 67.296,22.936 L67.296,22.936 Z M79.456,11 L60.544,11 C58.80976,11.00416 57.14768,11.69504 55.92144,12.92144 C54.69504,14.14768 54.00416,15.80976 54,17.544 L54,36.456 C54.00416,38.19024 54.69504,39.85232 55.92144,41.07872 C57.14768,42.30496 58.80976,42.99584 60.544,43 L79.456,43 C81.19024,42.99584 82.85232,42.30496 84.07872,41.07872 C85.30496,39.85232 85.99584,38.19024 86,36.456 L86,17.544 C85.99584,15.80976 85.30496,14.14768 84.07872,12.92144 C82.85232,11.69504 81.19024,11.00416 79.456,11 L79.456,11 Z M79.952,30.648 C79.88896,30.74336 79.81952,30.83424 79.744,30.92 L79.744,30.92 C79.3624,31.3896 78.9336,31.8184 78.464,32.2 C75.264,35.192 69.888,38.776 69.168,38.216 C68.448,37.656 70.192,35.4 68.32,35.016 C68.1872,35.0328 68.0528,35.0328 67.92,35.016 C62.416,34.248 58.32,30.392 58.32,25.768 C58.32,20.568 63.584,16.36 70.064,16.36 C76.544,16.36 81.808,20.568 81.808,25.768 C81.75248,27.55648 81.09904,29.27472 79.952,30.648 L79.952,30.648 Z M77.216,22.952 L74.8,22.952 C74.63872,22.952 74.48416,23.016 74.37008,23.13008 C74.256,23.24416 74.192,23.39872 74.192,23.56 L74.192,28.104 C74.192,28.18384 74.20768,28.26288 74.23824,28.33664 C74.2688,28.4104 74.3136,28.47744 74.37008,28.53392 C74.42656,28.5904 74.4936,28.6352 74.56736,28.66576 C74.64112,28.69632 74.72016,28.712 74.8,28.712 L77.168,28.712 C77.24784,28.712 77.32688,28.69632 77.40064,28.66576 C77.4744,28.6352 77.54144,28.5904 77.59792,28.53392 C77.6544,28.47744 77.6992,28.4104 77.72976,28.33664 C77.76032,28.26288 77.776,28.18384 77.776,28.104 L77.776,28.104 C77.776,27.94272 77.712,27.78816 77.59792,27.67408 C77.48384,27.56 77.32928,27.496 77.168,27.496 L75.52,27.496 L75.52,26.536 L77.216,26.536 C77.37872,26.53184 77.53328,26.46432 77.64688,26.34768 C77.76048,26.23104 77.824,26.07472 77.824,25.912 L77.824,25.912 C77.824,25.75072 77.76,25.59616 77.64592,25.48208 C77.53184,25.368 77.37728,25.304 77.216,25.304 L75.52,25.304 L75.52,24.328 L77.216,24.328 C77.37728,24.328 77.53184,24.264 77.64592,24.14992 C77.76,24.03584 77.824,23.88128 77.824,23.72 C77.84912,23.628 77.85232,23.53152 77.83328,23.43808 C77.81424,23.34464 77.77344,23.25696 77.71424,23.18224 C77.65504,23.10752 77.5792,23.04768 77.49264,23.00768 C77.40608,22.96768 77.31136,22.94864 77.216,22.952 L77.216,22.952 Z" id="line-01"></path>
        </g>
    </g>
</svg>