<?xml version="1.0" encoding="UTF-8"?>
<svg width="38px" height="32px" viewBox="0 0 38 32" version="1.1" xmlns="http://www.w3.org/2000/svg" xmlns:xlink="http://www.w3.org/1999/xlink">
    <title>twitter-02</title>
    <g id="Page-1" stroke="none" stroke-width="1" fill="none" fill-rule="evenodd">
        <g id="Social-Icon-Copy-02" transform="translate(-132.000000, -12.000000)" fill="#FFFFFF" fill-rule="nonzero">
            <path d="M169.605546,14.2369022 C169.605546,13.9350312 169.526916,13.6384591 169.374784,13.3772706 C169.222652,13.116253 169.003856,12.9001912 168.742325,12.7507941 C168.479085,12.601568 168.181659,12.5244763 167.880813,12.5275531 C167.578258,12.530459 167.282541,12.6135334 167.02272,12.7678876 C166.022751,13.3634248 164.945861,13.8194792 163.821109,14.1234014 C162.21603,12.7461789 160.16994,11.9923559 158.053765,11.9999897 C155.734179,12.002783 153.505188,12.9070286 151.840282,14.5220216 C150.173666,16.1370146 149.201047,18.3362631 149.125835,20.655337 C144.551617,19.9259578 140.404736,17.538339 137.478331,13.9481931 C137.302268,13.7341826 137.076634,13.5658118 136.821941,13.4570972 C136.567248,13.3483826 136.290333,13.3027429 136.013419,13.3237679 C135.736504,13.3465023 135.469846,13.4362431 135.235665,13.5851274 C135.003193,13.7340117 134.808328,13.9377661 134.67158,14.1784425 C133.965618,15.4088319 133.560503,16.7882766 133.48871,18.2044723 C133.416917,19.620839 133.680157,21.0341288 134.257917,22.3296444 L134.254498,22.3328922 C133.994677,22.4925454 133.781009,22.7161283 133.632295,22.982103 C133.483582,23.2479067 133.406661,23.5475556 133.406661,23.8519907 C133.404952,24.1030941 133.418627,24.3541975 133.452814,24.6030787 C133.627167,26.7539526 134.580984,28.7672239 136.133073,30.2652975 C136.028803,30.466146 135.963847,30.6857973 135.945045,30.9116024 C135.924532,31.1374074 135.950173,31.3649217 136.020256,31.5808125 C136.697158,33.6903202 138.13643,35.471291 140.057738,36.5751886 C138.105662,37.3298662 135.998034,37.593106 133.921175,37.3414898 C133.536572,37.2932862 133.14684,37.3770443 132.816936,37.5792603 C132.487031,37.7814763 132.234048,38.0900138 132.102428,38.454276 C131.970808,38.8185383 131.96568,39.2168167 132.090462,39.5839848 C132.213536,39.951153 132.459682,40.2651604 132.784458,40.4747266 C136.356998,42.7758524 140.517553,43.9992335 144.766995,43.9985497 C149.58565,44.0527361 154.288069,42.5127835 158.140942,39.6183428 C161.993815,36.7237311 164.783473,32.6368484 166.074031,27.9934016 C166.677432,25.9705579 166.985114,23.8713064 166.988533,21.7604312 C166.988533,21.6484688 166.988533,21.5334296 166.986824,21.4182195 C167.879104,20.455685 168.57139,19.3247797 169.020949,18.0916553 C169.470508,16.8585309 169.668792,15.5479729 169.605546,14.2369022 L169.605546,14.2369022 Z M163.954438,19.7271605 C163.670687,20.0611673 163.528811,20.4908976 163.554451,20.9274654 C163.571544,21.209508 163.569835,21.4932599 163.569835,21.7604312 C163.566416,23.5441369 163.304886,25.3180994 162.79379,27.0269357 C161.739122,30.9779251 159.390476,34.4610657 156.122201,36.918255 C152.853926,39.3756152 148.855758,40.6649772 144.766995,40.5798516 C143.298664,40.5803644 141.835462,40.4077202 140.406446,40.0658503 C142.228612,39.4788599 143.931123,38.5741014 145.43706,37.3932831 C145.713975,37.1748283 145.917387,36.8760341 146.016529,36.5379248 C146.117381,36.1996446 146.112253,35.8384592 145.999436,35.5039396 C145.886619,35.1694199 145.67295,34.8781469 145.387489,34.6697772 C145.103737,34.4614076 144.760158,34.3461974 144.408032,34.3400438 C142.987563,34.3179932 141.63034,33.7453612 140.623533,32.7426571 C140.879935,32.6942825 141.132919,32.6341134 141.384193,32.5623207 C141.753413,32.4571958 142.07648,32.230878 142.302114,31.9197764 C142.527748,31.6088458 142.640565,31.2310797 142.625181,30.8475018 C142.609797,30.4639238 142.464502,30.0967557 142.214937,29.8053116 C141.965372,29.5136967 141.625212,29.3147285 141.247445,29.2403718 C140.423539,29.0776417 139.647495,28.7267124 138.980849,28.2151042 C138.312493,27.703496 137.772339,27.0450548 137.40141,26.29089 C137.710802,26.3329399 138.021904,26.359093 138.333005,26.3693491 C138.703934,26.374819 139.066316,26.2625148 139.368871,26.0486752 C139.669716,25.8346647 139.89706,25.5300587 140.015005,25.1791293 C140.127822,24.8247813 140.120984,24.4434255 139.997911,24.092838 C139.874838,23.7422505 139.640657,23.4414051 139.329556,23.2359413 C138.577442,22.735102 137.962077,22.0556358 137.538158,21.2582244 C137.11253,20.4608131 136.892024,19.5705841 136.895404,18.6671931 C136.895404,18.5536923 136.898861,18.4401916 136.905699,18.3284001 C140.738059,21.9012816 145.707137,24.0075415 150.937745,24.2760802 C151.202694,24.2863363 151.465934,24.2365942 151.706952,24.1306146 C151.94968,24.024464 152.165058,23.8646399 152.335993,23.6634495 C152.505218,23.4602079 152.624873,23.2203862 152.686409,22.9627873 C152.747946,22.7053594 152.747946,22.4371625 152.688119,22.1793926 C152.590686,21.771542 152.539405,21.3536061 152.539405,20.9341318 C152.541115,19.4717837 153.122293,18.0697756 154.15645,17.0357904 C155.190606,16.0018051 156.592272,15.4202846 158.053765,15.4187259 C158.807588,15.4166949 159.551155,15.5707073 160.241732,15.8710399 C160.9306,16.1712016 161.551094,16.6111881 162.062189,17.1631369 C162.258764,17.3752671 162.508329,17.5333819 162.783534,17.622439 C163.05874,17.711667 163.352748,17.7287605 163.6365,17.672352 C164.339042,17.535775 165.031328,17.3516781 165.708231,17.1214288 C165.246706,18.0666988 164.655272,18.9435949 163.954438,19.7271605 L163.954438,19.7271605 Z" id="twitter-02"></path>
        </g>
    </g>
</svg>