<?xml version="1.0" encoding="UTF-8"?>
<svg width="32px" height="32px" viewBox="0 0 32 32" version="1.1" xmlns="http://www.w3.org/2000/svg" xmlns:xlink="http://www.w3.org/1999/xlink">
    <title>whatsup-01</title>
    <g id="Page-1" stroke="none" stroke-width="1" fill="none" fill-rule="evenodd">
        <g id="Social-Icon-Copy-01" transform="translate(-173.000000, -12.000000)" fill="#0277BD" fill-rule="nonzero">
            <path d="M205,19.28 C204.9824,18.58976 204.928,17.9008 204.84,17.216 C204.72,16.61616 204.5216,16.03504 204.248,15.488 C203.9616,14.89456 203.5776,14.3536 203.112,13.888 C202.6416,13.42752 202.1024,13.04416 201.512,12.752 C200.9648,12.48384 200.3824,12.29024 199.784,12.176 C199.1056,12.0744 198.4224,12.01568 197.736,12 L180.28,12 C179.5904,12.01792 178.9008,12.07136 178.216,12.16 C177.616,12.27952 177.0352,12.47856 176.488,12.752 C175.8944,13.03792 175.3536,13.42208 174.888,13.888 C174.4272,14.35824 174.0448,14.89824 173.752,15.488 C173.4832,16.03584 173.2896,16.61696 173.176,17.216 C173.0736,17.89424 173.016,18.57824 173,19.264 C173,19.568 173,20 173,20.128 L173,35.872 C173,36.048 173,36.432 173,36.72 C173.0176,37.41024 173.072,38.0992 173.16,38.784 C173.28,39.38384 173.4784,39.96496 173.752,40.512 C174.0384,41.10544 174.4224,41.6464 174.888,42.112 C175.3584,42.57248 175.8976,42.95584 176.488,43.248 C177.0352,43.51616 177.6176,43.70976 178.216,43.824 C178.8944,43.9256 179.5776,43.98432 180.264,44 L197.72,44 C198.4096,43.98208 199.0992,43.92864 199.784,43.84 C200.384,43.72048 200.9648,43.52144 201.512,43.248 C202.1056,42.96208 202.6464,42.57792 203.112,42.112 C203.5728,41.64176 203.9552,41.10176 204.248,40.512 C204.5168,39.96416 204.7104,39.38304 204.824,38.784 C204.9248,38.10576 204.984,37.42176 205,36.736 C205,36.432 205,36.048 205,35.872 L205,20.128 C205,20 205,19.568 205,19.28 Z M189.368,39.2 C187.4464,39.19056 185.5584,38.6952 183.88,37.76 L177.8,39.36 L179.4,33.408 C178.368,31.6744 177.816,29.69744 177.8,27.68 C177.8064,25.41264 178.4832,23.19792 179.7456,21.31472 C181.0096,19.43152 182.8,17.964 184.896,17.09712 C186.9904,16.23024 189.296,16.00272 191.52,16.44304 C193.744,16.88352 195.7872,17.97232 197.3936,19.57216 C199.0016,21.172 200.0976,23.21168 200.5472,25.43392 C200.9968,27.65616 200.7792,29.96192 199.9216,32.06048 C199.0624,34.1592 197.6032,35.95696 195.7248,37.22736 C193.8464,38.49792 191.6352,39.18416 189.368,39.2 L189.368,39.2 Z M189.368,18.192 C187.672,18.21136 186.0112,18.68 184.5552,19.54992 C183.0976,20.42 181.8976,21.66032 181.0768,23.1448 C180.256,24.62928 179.8432,26.3048 179.88,28.0008 C179.9168,29.6968 180.4032,31.3528 181.288,32.8 L181.512,33.168 L180.552,36.672 L184.2,35.68 L184.552,35.888 C186.008,36.74528 187.6624,37.20336 189.352,37.216 L189.352,37.216 C191.8976,37.216 194.3392,36.20464 196.1408,34.40416 C197.9408,32.60384 198.952,30.16208 198.952,27.616 C198.952,25.06992 197.9408,22.62816 196.1408,20.82784 C194.3392,19.02736 191.8976,18.016 189.352,18.016 L189.368,18.192 Z M194.968,31.824 C194.7584,32.1736 194.4784,32.4752 194.144,32.70944 C193.8112,32.94368 193.432,33.10544 193.032,33.184 C192.4352,33.29328 191.8192,33.25472 191.24,33.072 C190.6944,32.9016 190.16,32.69856 189.64,32.464 C187.6624,31.47152 185.9744,29.98304 184.744,28.144 C184.0752,27.292 183.6688,26.2632 183.576,25.184 C183.5664,24.73568 183.6512,24.2904 183.8256,23.8768 C183.9984,23.46336 184.2576,23.09104 184.584,22.784 C184.68,22.67488 184.7984,22.5872 184.9312,22.52656 C185.0624,22.46592 185.2064,22.4336 185.352,22.432 L185.8,22.432 C185.976,22.432 186.216,22.432 186.44,22.928 C186.664,23.424 187.256,24.912 187.336,25.056 C187.376,25.1328 187.3952,25.21776 187.3952,25.304 C187.3952,25.39024 187.376,25.4752 187.336,25.552 C187.2656,25.72592 187.168,25.88784 187.048,26.032 C186.904,26.208 186.744,26.416 186.616,26.544 C186.488,26.672 186.328,26.832 186.488,27.12 C186.9232,27.85472 187.4624,28.52288 188.088,29.104 C188.7696,29.70624 189.5488,30.18768 190.392,30.528 C190.68,30.672 190.856,30.656 191.016,30.528 C191.176,30.4 191.736,29.696 191.928,29.408 C192.12,29.12 192.312,29.168 192.568,29.264 C192.824,29.36 194.248,30.048 194.536,30.192 C194.824,30.336 195,30.4 195.08,30.528 C195.1488,30.94672 195.1104,31.37632 194.968,31.776 L194.968,31.824 Z" id="whatsup-01"></path>
        </g>
    </g>
</svg>